<?xml version="1.0" encoding="UTF-8" standalone="no"?>
<!DOCTYPE svg PUBLIC "-//W3C//DTD SVG 1.1//EN"
 "http://www.w3.org/Graphics/SVG/1.1/DTD/svg11.dtd">
<!-- Generated by graphviz version 3.0.0 (20220226.1711)
 -->
<!-- Pages: 1 -->
<svg width="185pt" height="404pt"
 viewBox="0.00 0.00 184.78 404.00" xmlns="http://www.w3.org/2000/svg" xmlns:xlink="http://www.w3.org/1999/xlink">
<g id="graph0" class="graph" transform="scale(1 1) rotate(0) translate(4 400)">
<polygon fill="white" stroke="transparent" points="-4,4 -4,-400 180.78,-400 180.78,4 -4,4"/>
<!-- scraper -->
<g id="node1" class="node">
<title>scraper</title>
<ellipse fill="none" stroke="black" cx="88.39" cy="-378" rx="36.29" ry="18"/>
<text text-anchor="middle" x="88.39" y="-374.3" font-family="Times,serif" font-size="14.00">scraper</text>
</g>
<!-- unzipper -->
<g id="node2" class="node">
<title>unzipper</title>
<ellipse fill="none" stroke="black" cx="88.39" cy="-306" rx="41.69" ry="18"/>
<text text-anchor="middle" x="88.39" y="-302.3" font-family="Times,serif" font-size="14.00">unzipper</text>
</g>
<!-- scraper&#45;&#45;unzipper -->
<g id="edge1" class="edge">
<title>scraper&#45;&#45;unzipper</title>
<path fill="none" stroke="black" d="M88.39,-359.7C88.39,-348.85 88.39,-334.92 88.39,-324.1"/>
</g>
<!-- sqlite_ops_raw -->
<g id="node3" class="node">
<title>sqlite_ops_raw</title>
<ellipse fill="none" stroke="black" cx="88.39" cy="-234" rx="63.89" ry="18"/>
<text text-anchor="middle" x="88.39" y="-230.3" font-family="Times,serif" font-size="14.00">sqlite_ops_raw</text>
</g>
<!-- unzipper&#45;&#45;sqlite_ops_raw -->
<g id="edge2" class="edge">
<title>unzipper&#45;&#45;sqlite_ops_raw</title>
<path fill="none" stroke="black" d="M88.39,-287.7C88.39,-276.85 88.39,-262.92 88.39,-252.1"/>
</g>
<!-- average_trip_duration -->
<g id="node4" class="node">
<title>average_trip_duration</title>
<ellipse fill="none" stroke="black" cx="88.39" cy="-162" rx="88.28" ry="18"/>
<text text-anchor="middle" x="88.39" y="-158.3" font-family="Times,serif" font-size="14.00">average_trip_duration</text>
</g>
<!-- sqlite_ops_raw&#45;&#45;average_trip_duration -->
<g id="edge3" class="edge">
<title>sqlite_ops_raw&#45;&#45;average_trip_duration</title>
<path fill="none" stroke="black" d="M88.39,-215.7C88.39,-204.85 88.39,-190.92 88.39,-180.1"/>
</g>
<!-- etl_step -->
<g id="node5" class="node">
<title>etl_step</title>
<ellipse fill="none" stroke="black" cx="88.39" cy="-90" rx="38.19" ry="18"/>
<text text-anchor="middle" x="88.39" y="-86.3" font-family="Times,serif" font-size="14.00">etl_step</text>
</g>
<!-- average_trip_duration&#45;&#45;etl_step -->
<g id="edge4" class="edge">
<title>average_trip_duration&#45;&#45;etl_step</title>
<path fill="none" stroke="black" d="M88.39,-143.7C88.39,-132.85 88.39,-118.92 88.39,-108.1"/>
</g>
<!-- sqlite_ops_etl -->
<g id="node6" class="node">
<title>sqlite_ops_etl</title>
<ellipse fill="none" stroke="black" cx="88.39" cy="-18" rx="59.59" ry="18"/>
<text text-anchor="middle" x="88.39" y="-14.3" font-family="Times,serif" font-size="14.00">sqlite_ops_etl</text>
</g>
<!-- etl_step&#45;&#45;sqlite_ops_etl -->
<g id="edge5" class="edge">
<title>etl_step&#45;&#45;sqlite_ops_etl</title>
<path fill="none" stroke="black" d="M88.39,-71.7C88.39,-60.85 88.39,-46.92 88.39,-36.1"/>
</g>
</g>
</svg>
